<svg xmlns="http://www.w3.org/2000/svg" width="112" height="32" viewBox="0 0 112 32" fill="none" role="img" aria-label="Lumen">
  <defs>
    <linearGradient id="lm-g-light" x1="0" y1="0" x2="32" y2="32" gradientUnits="userSpaceOnUse">
      <stop stop-color="#7C88F8"/>
      <stop offset="1" stop-color="#3B36C9"/>
    </linearGradient>
  </defs>
  <rect width="32" height="32" rx="8" fill="url(#lm-g-light)"/>
  <path d="M16 6C17 12 20 15 26 16C20 17 17 20 16 26C15 20 12 17 6 16C12 15 15 12 16 6Z" fill="#FFFFFF"/>
  <g stroke="#191C24" stroke-width="2.6" stroke-linecap="round" stroke-linejoin="round">
    <path d="M43 6V24"/>
    <path d="M49 13V19.5A4.5 4.5 0 0 0 58 19.5V13M58 13V24"/>
    <path d="M63 13V24M63 17A4 4 0 0 1 71 17V24M71 17A4 4 0 0 1 79 17V24"/>
    <path d="M84 18.5H95A5.5 5.5 0 1 0 93.39 22.39"/>
    <path d="M100 13V24M100 17.5A4.5 4.5 0 0 1 109 17.5V24"/>
  </g>
</svg>
